<?xml version="1.0" standalone="no"?>
<!DOCTYPE svg PUBLIC "-//W3C//DTD SVG 20010904//EN"
 "http://www.w3.org/TR/2001/REC-SVG-20010904/DTD/svg10.dtd">
<svg version="1.0" xmlns="http://www.w3.org/2000/svg"
 width="256.000000pt" height="256.000000pt" viewBox="0 0 256.000000 256.000000"
 preserveAspectRatio="xMidYMid meet">

<g transform="translate(0.000000,256.000000) scale(0.100000,-0.100000)"
fill="#000000" stroke="none">
<path d="M1404 2426 c-64 -29 -101 -108 -84 -181 12 -54 72 -110 129 -120 53
-9 126 25 158 74 43 64 23 168 -40 213 -37 27 -120 34 -163 14z"/>
<path d="M943 2390 c-87 -52 -83 -198 6 -245 66 -33 158 -10 197 51 23 35 23
113 0 148 -41 64 -138 86 -203 46z"/>
<path d="M1837 2265 c-76 -26 -119 -88 -119 -166 1 -95 64 -160 160 -166 71
-5 126 24 159 82 56 99 5 224 -105 255 -46 12 -48 12 -95 -5z"/>
<path d="M563 2185 c-64 -28 -93 -123 -57 -185 52 -87 191 -77 230 17 28 66
-4 141 -72 169 -41 17 -60 17 -101 -1z"/>
<path d="M2102 1929 c-120 -60 -135 -232 -27 -315 30 -22 50 -29 101 -32 54
-4 70 -1 106 21 103 60 124 194 45 284 -58 65 -144 82 -225 42z"/>
<path d="M300 1823 c-31 -11 -70 -58 -76 -90 -14 -72 39 -133 113 -133 38 0
50 5 79 34 39 39 45 86 18 137 -22 43 -88 69 -134 52z"/>
<path d="M2252 1519 c-53 -16 -117 -87 -131 -146 -46 -191 179 -329 326 -200
166 145 18 407 -195 346z"/>
<path d="M183 1358 c-31 -15 -56 -72 -48 -108 4 -16 20 -41 37 -55 53 -45 126
-27 153 39 36 86 -55 166 -142 124z"/>
<path d="M292 905 c-59 -25 -70 -89 -23 -136 16 -16 39 -29 51 -29 29 0 76 26
84 45 30 80 -37 151 -112 120z"/>
<path d="M2167 744 c-8 -8 1 -24 14 -24 5 0 9 7 9 15 0 15 -12 20 -23 9z"/>
<path d="M552 520 c-49 -45 -16 -124 50 -122 65 2 92 82 42 121 -34 27 -64 27
-92 1z"/>
<path d="M1843 414 c-3 -8 2 -23 11 -32 15 -15 17 -15 32 0 21 21 11 48 -16
48 -11 0 -23 -7 -27 -16z"/>
<path d="M957 292 c-22 -25 -21 -55 2 -76 27 -25 72 -17 90 15 13 24 13 29 -2
53 -21 31 -66 35 -90 8z"/>
<path d="M1426 267 c-22 -16 -18 -55 7 -71 39 -24 79 44 41 71 -10 7 -21 13
-24 13 -3 0 -14 -6 -24 -13z"/>
</g>
</svg>
